<svg width="117" height="40" viewBox="0 0 117 40" fill="none" xmlns="http://www.w3.org/2000/svg">
<path d="M51.9688 19.1328L47.3984 19.4141C47.3203 19.0234 47.1523 18.6719 46.8945 18.3594C46.6367 18.0391 46.2969 17.7852 45.875 17.5977C45.4609 17.4023 44.9648 17.3047 44.3867 17.3047C43.6133 17.3047 42.9609 17.4687 42.4297 17.7969C41.8984 18.1172 41.6328 18.5469 41.6328 19.0859C41.6328 19.5156 41.8047 19.8789 42.1484 20.1758C42.4922 20.4727 43.082 20.7109 43.918 20.8906L47.1758 21.5469C48.9258 21.9062 50.2305 22.4844 51.0898 23.2812C51.9492 24.0781 52.3789 25.125 52.3789 26.4219C52.3789 27.6016 52.0313 28.6367 51.3359 29.5273C50.6484 30.418 49.7031 31.1133 48.5 31.6133C47.3047 32.1055 45.9258 32.3516 44.3633 32.3516C41.9805 32.3516 40.082 31.8555 38.668 30.8633C37.2617 29.8633 36.4375 28.5039 36.1953 26.7852L41.1055 26.5273C41.2539 27.2539 41.6133 27.8086 42.1836 28.1914C42.7539 28.5664 43.4844 28.7539 44.375 28.7539C45.25 28.7539 45.9531 28.5859 46.4844 28.25C47.0234 27.9062 47.2969 27.4648 47.3047 26.9258C47.2969 26.4727 47.1055 26.1016 46.7305 25.8125C46.3555 25.5156 45.7773 25.2891 44.9961 25.1328L41.8789 24.5117C40.1211 24.1602 38.8125 23.5508 37.9531 22.6836C37.1016 21.8164 36.6758 20.7109 36.6758 19.3672C36.6758 18.2109 36.9883 17.2148 37.6133 16.3789C38.2461 15.543 39.1328 14.8984 40.2734 14.4453C41.4219 13.9922 42.7656 13.7656 44.3047 13.7656C46.5781 13.7656 48.3672 14.2461 49.6719 15.207C50.9844 16.168 51.75 17.4766 51.9688 19.1328ZM59.0732 32L54.1748 14H59.2256L62.0146 26.0937H62.1787L65.085 14H70.042L72.9951 26.0234H73.1475L75.8896 14H80.9287L76.042 32H70.7568L67.6631 20.6797H67.4404L64.3467 32H59.0732ZM83.5918 32V14H88.584V32H83.5918ZM86.0996 11.6797C85.3574 11.6797 84.7207 11.4336 84.1895 10.9414C83.666 10.4414 83.4043 9.84375 83.4043 9.14844C83.4043 8.46094 83.666 7.87109 84.1895 7.37891C84.7207 6.87891 85.3574 6.6289 86.0996 6.6289C86.8418 6.6289 87.4746 6.87891 87.998 7.37891C88.5293 7.87109 88.7949 8.46094 88.7949 9.14844C88.7949 9.84375 88.5293 10.4414 87.998 10.9414C87.4746 11.4336 86.8418 11.6797 86.0996 11.6797ZM102.263 14V17.75H91.1533V14H102.263ZM93.6963 32V12.6992C93.6963 11.3945 93.9502 10.3125 94.458 9.45312C94.9736 8.59375 95.6768 7.94922 96.5674 7.51953C97.458 7.08984 98.4697 6.875 99.6025 6.875C100.368 6.875 101.067 6.93359 101.7 7.05078C102.341 7.16797 102.817 7.27344 103.13 7.36719L102.239 11.1172C102.044 11.0547 101.802 10.9961 101.513 10.9414C101.231 10.8867 100.942 10.8594 100.646 10.8594C99.9111 10.8594 99.3994 11.0313 99.1104 11.375C98.8213 11.7109 98.6768 12.1836 98.6768 12.793V32H93.6963ZM114.887 14V17.75H104.047V14H114.887ZM106.508 9.6875H111.5V26.4687C111.5 26.9297 111.57 27.2891 111.711 27.5469C111.852 27.7969 112.047 27.9727 112.297 28.0742C112.555 28.1758 112.852 28.2266 113.188 28.2266C113.422 28.2266 113.656 28.207 113.891 28.168C114.125 28.1211 114.305 28.0859 114.43 28.0625L115.215 31.7773C114.965 31.8555 114.613 31.9453 114.16 32.0469C113.707 32.1563 113.156 32.2227 112.508 32.2461C111.305 32.293 110.25 32.1328 109.344 31.7656C108.445 31.3984 107.746 30.8281 107.246 30.0547C106.746 29.2812 106.5 28.3047 106.508 27.125V9.6875Z" fill="#37352F"/>
<path d="M19.493 5L0 21.8379H8.99178L5.50699 35L25 18.1621H16.0082L19.493 5Z" fill="#443C68"/>
</svg>
